HIERARCHY
ROOT Hips
{
	OFFSET 0.000000 88.474243 0.000000
	CHANNELS 6 Xposition Yposition Zposition Zrotation Yrotation Xrotation 
	JOINT Hips_Spine
	{
		OFFSET 0.000000 0.000000 0.000000
		CHANNELS 3 Zrotation Yrotation Xrotation
		JOINT Spine
		{
			OFFSET 0.005100 8.711998 -0.691000
			CHANNELS 3 Zrotation Yrotation Xrotation
			JOINT Spine1
			{
				OFFSET -0.009200 8.660301 -1.275000
				CHANNELS 3 Zrotation Yrotation Xrotation
				JOINT Spine2
				{
					OFFSET 0.006300 9.852501 -1.857000
					CHANNELS 3 Zrotation Yrotation Xrotation
					JOINT Spine2_Neck
					{
						OFFSET 0.000000 0.000000 0.000000
						CHANNELS 3 Zrotation Yrotation Xrotation
						JOINT Neck
						{
							OFFSET 0.016300 11.420799 -0.263300
							CHANNELS 3 Zrotation Yrotation Xrotation
							End Site #name: Head
							{
								OFFSET -0.019200 9.262405 2.362500
							}
						}
					}
					JOINT Spine2_LeftShoulder
					{
						OFFSET 0.000000 0.000000 0.000000
						CHANNELS 3 Zrotation Yrotation Xrotation
						JOINT LeftShoulder
						{
							OFFSET 5.616900 6.732201 -0.345700
							CHANNELS 3 Zrotation Yrotation Xrotation
							JOINT LeftArm
							{
								OFFSET 10.664888 -0.183372 -2.440700
								CHANNELS 3 Zrotation Yrotation Xrotation
								JOINT LeftForeArm
								{
									OFFSET 27.459126 0.000000 0.000000
									CHANNELS 3 Zrotation Yrotation Xrotation
									End Site #name: LeftHand
									{
										OFFSET 21.306858 0.000000 0.000000
									}
								}
							}
						}
					}
					JOINT Spine2_RightShoulder
					{
						OFFSET 0.000000 0.000000 0.000000
						CHANNELS 3 Zrotation Yrotation Xrotation
						JOINT RightShoulder
						{
							OFFSET -5.580300 6.737503 -0.344400
							CHANNELS 3 Zrotation Yrotation Xrotation
							JOINT RightArm
							{
								OFFSET -10.679335 -0.188484 -2.383900
								CHANNELS 3 Zrotation Yrotation Xrotation
								JOINT RightForeArm
								{
									OFFSET -27.503529 0.000000 0.000000
									CHANNELS 3 Zrotation Yrotation Xrotation
									End Site #name: RightHand
									{
										OFFSET -21.306808 0.000000 0.000000
									}
								}
							}
						}
					}
				}
			}
		}
	}
	JOINT Hips_LeftUpLeg
	{
		OFFSET 0.000000 0.000000 0.000000
		CHANNELS 3 Zrotation Yrotation Xrotation
		JOINT LeftUpLeg
		{
			OFFSET 6.857700 -6.739601 0.312100
			CHANNELS 3 Zrotation Yrotation Xrotation
			JOINT LeftLeg
			{
				OFFSET -0.367590 -34.731552 -4.572400
				CHANNELS 3 Zrotation Yrotation Xrotation
				End Site #name: LeftFoot
				{
					OFFSET 0.367590 -34.656704 -6.067400
				}
			}
		}
	}
	JOINT Hips_RightUpLeg
	{
		OFFSET 0.000000 0.000000 0.000000
		CHANNELS 3 Zrotation Yrotation Xrotation
		JOINT RightUpLeg
		{
			OFFSET -6.876100 -6.733299 0.301000
			CHANNELS 3 Zrotation Yrotation Xrotation
			JOINT RightLeg
			{
				OFFSET 0.347353 -34.795158 -4.515900
				CHANNELS 3 Zrotation Yrotation Xrotation
				End Site #name: RightFoot
				{
					OFFSET -0.347353 -34.589367 -6.070300
				}
			}
		}
	}
}
MOTION
Frames: 14
Frame Time: 0.041667
0.190199 0.039709 -0.018714 1.463993 14.616912 -6.006910 -0.000000 0.000000 0.000000 0.152059 -1.827383 0.099777 0.052625 -1.498080 -1.765067 0.000000 0.000000 0.000000 -0.346360 -1.029847 -2.002733 5.300531 1.716999 -7.191433 0.081396 -1.797960 -3.074282 -16.272848 -7.962144 2.512961 -45.961968 -0.754957 6.885329 -0.260871 -32.485867 6.576874 -0.054255 -1.271393 -1.086924 12.162732 11.212532 4.642709 57.683233 -5.748702 -5.495700 -0.643444 53.022699 0.513744 0.000000 0.000000 0.000000 -10.563090 19.169855 -4.381209 -2.450007 -3.101369 22.234116 0.000000 0.000000 0.000000 -5.114798 17.330537 -9.872448 8.171343 2.422350 -1.311407 
0.787258 -0.046215 0.138561 3.475148 14.127523 -6.530767 -0.000000 0.000000 0.000000 -2.189972 -2.503703 -0.625616 0.273692 -1.523003 -2.123577 0.000000 0.000000 0.000000 -0.307022 -0.933415 -3.185451 6.166071 -0.311373 -5.900044 -0.530027 -1.683094 -4.268962 -21.296419 -4.317604 0.773277 -42.873824 -0.805750 -4.822235 -0.683534 -25.940527 4.774351 -0.241432 -1.566846 -1.360669 12.753088 8.375837 1.880572 60.180247 -0.530045 -7.294803 -0.654055 55.056933 -0.887791 0.000000 0.000000 -0.000000 -13.867568 16.596449 -1.442291 -1.658334 0.576146 20.062026 0.000000 0.000000 0.000000 -9.344110 20.280706 -10.895418 8.761170 2.288095 1.240950 
1.138530 -0.093599 0.186091 4.993627 11.615660 -6.841903 -0.000000 0.000000 -0.000000 -3.550873 -3.920353 -0.466488 0.271541 -1.333327 -2.173404 0.000000 0.000000 0.000000 0.219938 -1.312402 -3.095497 5.153776 -1.239469 -5.876880 -0.793762 -1.561850 -3.768976 -24.547019 -3.396729 2.133641 -42.512481 5.425644 -9.186459 -1.128968 -26.937920 4.834128 -0.072118 -1.575832 -1.292317 11.780798 7.706540 2.075486 59.598820 1.389027 -5.121750 -0.229083 50.395328 -0.637828 0.000000 0.000000 -0.000000 -15.965967 16.161647 0.616649 -1.958037 1.026126 18.081013 0.000000 0.000000 0.000000 -11.932438 21.829718 -14.799982 8.147230 0.510430 8.465720 
1.426547 -0.130130 0.167434 5.741863 9.645799 -6.764563 -0.000000 0.000000 -0.000000 -5.093984 -3.812411 0.766561 0.295101 -1.275269 -1.973419 0.000000 0.000000 0.000000 0.447571 -1.462743 -2.839433 4.856337 -3.044109 -4.459029 -0.691503 -1.568101 -3.455309 -25.888424 -2.968540 3.423738 -41.014788 6.305092 -8.780732 -0.695882 -26.329309 7.234251 0.059824 -1.562364 -1.105033 10.364080 7.682173 2.035423 59.436293 4.262221 -3.680069 -0.085020 51.458532 -0.547278 0.000000 0.000000 -0.000000 -17.030278 16.274681 1.104820 -2.600367 1.272271 17.399526 0.000000 0.000000 0.000000 -13.814010 21.329132 -18.479904 7.455325 -0.330508 16.462635 
1.738254 -0.149565 0.119551 5.979587 9.010703 -6.467674 -0.000000 0.000000 -0.000000 -6.215153 -3.498190 1.031862 0.255026 -1.260828 -1.840173 0.000000 0.000000 0.000000 0.313287 -1.582031 -2.867352 4.680568 -3.898519 -3.464909 -0.665900 -1.717595 -3.271597 -27.331847 -2.514566 4.588247 -38.194133 6.247148 -8.823019 -0.039970 -22.791294 9.210358 0.063057 -1.578124 -1.039470 8.514889 7.747900 1.851910 60.372633 4.884452 -3.916445 -0.001705 53.448292 -0.697939 0.000000 0.000000 -0.000000 -17.595706 16.357007 1.197821 -2.905287 1.515317 17.085941 0.000000 0.000000 0.000000 -15.099927 20.168534 -20.725088 7.015073 -0.503701 21.895377 
2.079943 -0.158874 0.067600 5.982294 8.830308 -6.306673 -0.000000 0.000000 -0.000000 -6.637570 -3.240666 0.600865 0.145635 -1.262645 -1.782523 0.000000 0.000000 0.000000 0.045856 -1.649904 -2.963006 4.473557 -4.134630 -3.194440 -0.762169 -1.801449 -3.291025 -29.090318 -1.829261 5.226195 -36.065880 6.133615 -8.352844 0.419896 -18.569382 10.629279 -0.022891 -1.660728 -1.120598 6.978383 7.789770 1.676827 62.069855 4.185337 -5.481113 0.151448 53.337623 -0.727527 0.000000 0.000000 -0.000000 -17.964439 16.421365 1.071655 -2.777768 1.719017 16.967258 0.000000 0.000000 0.000000 -15.829135 18.927194 -21.551737 6.741172 -0.230968 24.953090 
2.431369 -0.158112 0.014717 5.810016 9.335212 -6.238533 -0.000000 0.000000 -0.000000 -6.356272 -2.933852 -0.043149 -0.043793 -1.221382 -1.899177 0.000000 0.000000 0.000000 -0.221665 -1.648555 -3.055084 4.215948 -4.212637 -2.988708 -0.954194 -1.803389 -3.427477 -30.865239 -0.969615 5.383753 -34.426329 6.079211 -7.804165 0.775684 -14.288293 11.180160 -0.245824 -1.676595 -1.263912 6.086278 7.777102 1.598521 64.173012 3.110896 -7.740218 0.314700 51.859766 -0.708904 0.000000 0.000000 -0.000000 -18.092858 16.474754 0.678716 -2.572433 1.937078 17.175737 0.000000 0.000000 0.000000 -16.259845 17.811946 -21.352776 6.577925 0.082143 26.135889 
2.769772 -0.144964 -0.031871 5.507797 10.478237 -6.156838 -0.000000 0.000000 -0.000000 -5.992044 -2.493940 -0.685613 -0.233365 -1.098698 -2.064806 0.000000 0.000000 0.000000 -0.424871 -1.607585 -3.173660 3.949553 -4.202475 -2.773545 -1.160769 -1.740362 -3.595219 -32.250538 -0.169783 5.255943 -33.299823 6.002276 -7.526423 0.968144 -11.450635 10.806508 -0.480381 -1.596109 -1.369159 5.668136 7.776302 1.590024 66.485772 2.970304 -9.120650 0.505233 49.517416 -0.639370 0.000000 0.000000 -0.000000 -17.978805 16.410371 0.123236 -2.428533 2.200839 17.594505 0.000000 0.000000 0.000000 -16.430809 16.441732 -20.657066 6.198132 0.111072 26.250451 
3.070528 -0.116948 -0.063560 5.097902 12.142195 -6.023586 -0.000000 0.000000 -0.000000 -5.926487 -1.943790 -1.018975 -0.391147 -0.929128 -2.211701 0.000000 0.000000 0.000000 -0.603831 -1.527485 -3.289760 3.798240 -4.010223 -2.580235 -1.323323 -1.649112 -3.811683 -33.075373 0.349462 5.150690 -32.751349 5.920517 -7.441780 1.049456 -10.107253 10.157107 -0.671041 -1.482076 -1.468584 5.435758 7.729569 1.591629 68.487115 2.579012 -9.322689 0.678641 46.907248 -0.565688 0.000000 0.000000 -0.000000 -17.704513 16.346031 -0.478957 -2.194328 2.514726 17.875227 0.000000 0.000000 0.000000 -16.369820 14.764192 -19.723901 5.586153 -0.077770 25.745450 
3.328678 -0.069743 -0.077289 4.579314 13.984685 -5.865498 -0.000000 0.000000 -0.000000 -6.221565 -1.372804 -1.132182 -0.538563 -0.778735 -2.390083 0.000000 0.000000 0.000000 -0.799625 -1.430952 -3.414841 3.746727 -3.677895 -2.445560 -1.471266 -1.542299 -4.016798 -33.411098 0.696727 5.073467 -32.844864 5.836846 -7.420656 0.991986 -9.796891 9.664094 -0.937139 -1.314365 -1.543469 5.188303 7.602798 1.569190 70.010129 2.711293 -8.852284 0.788529 44.665821 -0.501735 0.000000 0.000000 -0.000000 -17.309234 16.266831 -1.027216 -1.885196 2.861711 17.952522 0.000000 0.000000 0.000000 -16.170929 12.643603 -18.609998 4.928321 -0.451558 24.633757 
3.542550 -0.008540 -0.076589 4.004199 15.686686 -5.715329 -0.000000 0.000000 -0.000000 -6.675060 -0.745373 -1.046284 -0.703108 -0.630914 -2.599905 0.000000 0.000000 0.000000 -1.031755 -1.325000 -3.538725 3.815055 -3.215107 -2.458807 -1.628746 -1.428308 -4.218634 -33.369427 0.944130 5.009493 -33.247500 5.718097 -7.458035 0.911186 -10.140423 9.342843 -1.235935 -1.134123 -1.603677 4.963410 7.465533 1.536395 70.850233 2.960369 -7.948300 0.845364 43.137362 -0.482787 0.000000 0.000000 -0.000000 -16.873731 16.195426 -1.611606 -1.605571 3.148750 18.034105 0.000000 0.000000 0.000000 -15.919292 10.404445 -17.459322 4.320451 -0.933657 23.113567 
3.709406 0.061597 -0.065838 3.462614 16.912398 -5.551875 -0.000000 0.000000 -0.000000 -7.263835 -0.324962 -0.852848 -0.880714 -0.490960 -2.805581 0.000000 0.000000 0.000000 -1.280678 -1.225177 -3.649341 3.942073 -2.696371 -2.599787 -1.800564 -1.310312 -4.404134 -33.095420 1.138800 4.977967 -33.865132 5.473774 -7.359910 0.866308 -10.628913 9.142028 -1.551010 -0.962482 -1.656599 4.823854 7.246748 1.501800 71.013202 3.222417 -7.161137 0.863260 42.425288 -0.481318 0.000000 0.000000 -0.000000 -16.457585 16.160948 -2.055273 -1.346716 3.403853 17.834461 0.000000 0.000000 0.000000 -15.587289 8.164291 -16.448533 3.751458 -1.439576 21.371114 
3.826347 0.134016 -0.051521 3.016249 17.576396 -5.385055 -0.000000 0.000000 -0.000000 -7.760012 -0.074207 -0.652327 -1.023519 -0.376773 -2.988166 0.000000 0.000000 0.000000 -1.512129 -1.137611 -3.743303 4.108634 -2.206901 -2.865084 -1.968112 -1.195341 -4.563735 -32.712380 1.288581 4.948749 -34.513663 5.034648 -7.068117 0.848166 -11.004448 9.026124 -1.836618 -0.794799 -1.697602 4.814084 7.011909 1.456237 70.660044 3.421024 -6.713779 0.855152 42.266803 -0.492401 0.000000 0.000000 -0.000000 -16.083873 16.219853 -2.353886 -1.229905 3.591626 17.464576 0.000000 0.000000 0.000000 -15.186815 6.227489 -15.645104 3.234765 -2.069566 19.795696 
3.896025 0.205020 -0.037825 2.671434 17.725547 -5.231066 -0.000000 0.000000 -0.000000 -8.108685 0.062092 -0.517386 -1.107557 -0.294522 -3.167358 0.000000 0.000000 0.000000 -1.694762 -1.065494 -3.845605 4.378964 -1.770916 -3.297276 -2.102810 -1.143699 -4.711611 -32.198545 1.339452 4.983552 -35.192154 4.481539 -6.452939 0.830014 -11.287566 8.908124 -2.070969 -0.652972 -1.751798 4.871873 6.818045 1.402967 70.082272 3.549039 -6.735367 0.829006 42.475916 -0.504698 0.000000 0.000000 -0.000000 -15.666073 16.354379 -2.596682 -1.209559 3.961715 17.093214 0.000000 0.000000 0.000000 -14.763516 4.700800 -15.018547 2.775902 -2.694699 18.271888 
